<mxfile host="app.diagrams.net" agent="Mozilla/5.0 (Macintosh; Intel Mac OS X 10_15_7) AppleWebKit/537.36 (KHTML, like Gecko) Chrome/138.0.0.0 Safari/537.36" version="28.0.7">
  <diagram name="Page-1" id="MPxGEpVaJ0KtpQA-uyGc">
    <mxGraphModel dx="1024" dy="680" grid="1" gridSize="10" guides="1" tooltips="1" connect="1" arrows="1" fold="1" page="1" pageScale="1" pageWidth="827" pageHeight="1169" math="0" shadow="0">
      <root>
        <mxCell id="0" />
        <mxCell id="1" parent="0" />
        <mxCell id="TM3yOK5nRzFVSYAbz1Og-3" style="edgeStyle=orthogonalEdgeStyle;rounded=0;orthogonalLoop=1;jettySize=auto;html=1;exitX=0.5;exitY=1;exitDx=0;exitDy=0;exitPerimeter=0;entryX=0.5;entryY=0;entryDx=0;entryDy=0;" edge="1" parent="1" target="TM3yOK5nRzFVSYAbz1Og-2">
          <mxGeometry relative="1" as="geometry">
            <mxPoint x="414" y="70" as="sourcePoint" />
          </mxGeometry>
        </mxCell>
        <mxCell id="TM3yOK5nRzFVSYAbz1Og-5" style="edgeStyle=orthogonalEdgeStyle;rounded=0;orthogonalLoop=1;jettySize=auto;html=1;exitX=0.5;exitY=1;exitDx=0;exitDy=0;entryX=0.5;entryY=0;entryDx=0;entryDy=0;" edge="1" parent="1" source="TM3yOK5nRzFVSYAbz1Og-2" target="TM3yOK5nRzFVSYAbz1Og-4">
          <mxGeometry relative="1" as="geometry" />
        </mxCell>
        <mxCell id="TM3yOK5nRzFVSYAbz1Og-2" value="Input number&amp;nbsp;" style="shape=parallelogram;html=1;strokeWidth=2;perimeter=parallelogramPerimeter;whiteSpace=wrap;rounded=1;arcSize=12;size=0.23;" vertex="1" parent="1">
          <mxGeometry x="364" y="130" width="100" height="60" as="geometry" />
        </mxCell>
        <mxCell id="TM3yOK5nRzFVSYAbz1Og-6" style="edgeStyle=orthogonalEdgeStyle;rounded=0;orthogonalLoop=1;jettySize=auto;html=1;" edge="1" parent="1" source="TM3yOK5nRzFVSYAbz1Og-4">
          <mxGeometry relative="1" as="geometry">
            <mxPoint x="310" y="280" as="targetPoint" />
          </mxGeometry>
        </mxCell>
        <mxCell id="TM3yOK5nRzFVSYAbz1Og-8" value="No" style="edgeLabel;html=1;align=center;verticalAlign=middle;resizable=0;points=[];" vertex="1" connectable="0" parent="TM3yOK5nRzFVSYAbz1Og-6">
          <mxGeometry x="0.0234" relative="1" as="geometry">
            <mxPoint as="offset" />
          </mxGeometry>
        </mxCell>
        <mxCell id="TM3yOK5nRzFVSYAbz1Og-7" style="edgeStyle=orthogonalEdgeStyle;rounded=0;orthogonalLoop=1;jettySize=auto;html=1;exitX=1;exitY=0.5;exitDx=0;exitDy=0;" edge="1" parent="1" source="TM3yOK5nRzFVSYAbz1Og-4">
          <mxGeometry relative="1" as="geometry">
            <mxPoint x="510" y="280" as="targetPoint" />
          </mxGeometry>
        </mxCell>
        <mxCell id="TM3yOK5nRzFVSYAbz1Og-9" value="Yes" style="edgeLabel;html=1;align=center;verticalAlign=middle;resizable=0;points=[];" vertex="1" connectable="0" parent="TM3yOK5nRzFVSYAbz1Og-7">
          <mxGeometry x="-0.0109" y="1" relative="1" as="geometry">
            <mxPoint y="-1" as="offset" />
          </mxGeometry>
        </mxCell>
        <mxCell id="TM3yOK5nRzFVSYAbz1Og-4" value="TryParse decimal" style="rhombus;whiteSpace=wrap;html=1;" vertex="1" parent="1">
          <mxGeometry x="374" y="240" width="80" height="80" as="geometry" />
        </mxCell>
        <mxCell id="TM3yOK5nRzFVSYAbz1Og-29" style="edgeStyle=orthogonalEdgeStyle;rounded=0;orthogonalLoop=1;jettySize=auto;html=1;" edge="1" parent="1" source="TM3yOK5nRzFVSYAbz1Og-10">
          <mxGeometry relative="1" as="geometry">
            <mxPoint x="270" y="350" as="targetPoint" />
          </mxGeometry>
        </mxCell>
        <mxCell id="TM3yOK5nRzFVSYAbz1Og-10" value="Show Error" style="shape=parallelogram;html=1;strokeWidth=2;perimeter=parallelogramPerimeter;whiteSpace=wrap;rounded=1;arcSize=12;size=0.23;" vertex="1" parent="1">
          <mxGeometry x="220" y="250" width="100" height="60" as="geometry" />
        </mxCell>
        <mxCell id="TM3yOK5nRzFVSYAbz1Og-12" style="edgeStyle=orthogonalEdgeStyle;rounded=0;orthogonalLoop=1;jettySize=auto;html=1;" edge="1" parent="1" source="TM3yOK5nRzFVSYAbz1Og-11">
          <mxGeometry relative="1" as="geometry">
            <mxPoint x="570" y="350" as="targetPoint" />
          </mxGeometry>
        </mxCell>
        <mxCell id="TM3yOK5nRzFVSYAbz1Og-11" value="&amp;nbsp;Split into dollars &amp;amp; cents" style="rounded=0;whiteSpace=wrap;html=1;" vertex="1" parent="1">
          <mxGeometry x="510" y="250" width="120" height="60" as="geometry" />
        </mxCell>
        <mxCell id="TM3yOK5nRzFVSYAbz1Og-14" style="edgeStyle=orthogonalEdgeStyle;rounded=0;orthogonalLoop=1;jettySize=auto;html=1;" edge="1" parent="1" source="TM3yOK5nRzFVSYAbz1Og-13">
          <mxGeometry relative="1" as="geometry">
            <mxPoint x="570" y="450" as="targetPoint" />
          </mxGeometry>
        </mxCell>
        <mxCell id="TM3yOK5nRzFVSYAbz1Og-13" value="Convert dollars to words" style="rounded=0;whiteSpace=wrap;html=1;" vertex="1" parent="1">
          <mxGeometry x="510" y="350" width="120" height="60" as="geometry" />
        </mxCell>
        <mxCell id="TM3yOK5nRzFVSYAbz1Og-16" value="No" style="edgeStyle=orthogonalEdgeStyle;rounded=0;orthogonalLoop=1;jettySize=auto;html=1;" edge="1" parent="1" source="TM3yOK5nRzFVSYAbz1Og-15">
          <mxGeometry relative="1" as="geometry">
            <mxPoint x="480" y="490" as="targetPoint" />
          </mxGeometry>
        </mxCell>
        <mxCell id="TM3yOK5nRzFVSYAbz1Og-17" style="edgeStyle=orthogonalEdgeStyle;rounded=0;orthogonalLoop=1;jettySize=auto;html=1;entryX=0;entryY=0.5;entryDx=0;entryDy=0;" edge="1" parent="1" source="TM3yOK5nRzFVSYAbz1Og-15" target="TM3yOK5nRzFVSYAbz1Og-19">
          <mxGeometry relative="1" as="geometry">
            <mxPoint x="650" y="490" as="targetPoint" />
          </mxGeometry>
        </mxCell>
        <mxCell id="TM3yOK5nRzFVSYAbz1Og-18" value="Yes" style="edgeLabel;html=1;align=center;verticalAlign=middle;resizable=0;points=[];" vertex="1" connectable="0" parent="TM3yOK5nRzFVSYAbz1Og-17">
          <mxGeometry x="-0.3087" y="-1" relative="1" as="geometry">
            <mxPoint as="offset" />
          </mxGeometry>
        </mxCell>
        <mxCell id="TM3yOK5nRzFVSYAbz1Og-15" value="Is cents == 0?" style="rhombus;whiteSpace=wrap;html=1;" vertex="1" parent="1">
          <mxGeometry x="520" y="450" width="100" height="80" as="geometry" />
        </mxCell>
        <mxCell id="TM3yOK5nRzFVSYAbz1Og-34" value="" style="edgeStyle=orthogonalEdgeStyle;rounded=0;orthogonalLoop=1;jettySize=auto;html=1;" edge="1" parent="1" source="TM3yOK5nRzFVSYAbz1Og-19" target="TM3yOK5nRzFVSYAbz1Og-32">
          <mxGeometry relative="1" as="geometry" />
        </mxCell>
        <mxCell id="TM3yOK5nRzFVSYAbz1Og-19" value="&amp;nbsp;Return&lt;div&gt;&quot;XXX DOLLARS&quot;&amp;nbsp;&amp;nbsp;&lt;/div&gt;" style="rounded=0;whiteSpace=wrap;html=1;" vertex="1" parent="1">
          <mxGeometry x="660" y="460" width="120" height="60" as="geometry" />
        </mxCell>
        <mxCell id="TM3yOK5nRzFVSYAbz1Og-21" style="edgeStyle=orthogonalEdgeStyle;rounded=0;orthogonalLoop=1;jettySize=auto;html=1;" edge="1" parent="1" source="TM3yOK5nRzFVSYAbz1Og-20">
          <mxGeometry relative="1" as="geometry">
            <mxPoint x="420" y="560" as="targetPoint" />
          </mxGeometry>
        </mxCell>
        <mxCell id="TM3yOK5nRzFVSYAbz1Og-20" value="Convert cents to words" style="rounded=0;whiteSpace=wrap;html=1;" vertex="1" parent="1">
          <mxGeometry x="360" y="460" width="120" height="60" as="geometry" />
        </mxCell>
        <mxCell id="TM3yOK5nRzFVSYAbz1Og-23" style="edgeStyle=orthogonalEdgeStyle;rounded=0;orthogonalLoop=1;jettySize=auto;html=1;" edge="1" parent="1" source="TM3yOK5nRzFVSYAbz1Og-22">
          <mxGeometry relative="1" as="geometry">
            <mxPoint x="420" y="650" as="targetPoint" />
          </mxGeometry>
        </mxCell>
        <mxCell id="TM3yOK5nRzFVSYAbz1Og-22" value="Return &quot;XXX DOLLARS AND YYY CENTS&quot;" style="rounded=0;whiteSpace=wrap;html=1;" vertex="1" parent="1">
          <mxGeometry x="360" y="560" width="120" height="60" as="geometry" />
        </mxCell>
        <mxCell id="TM3yOK5nRzFVSYAbz1Og-25" value="End" style="ellipse;whiteSpace=wrap;html=1;" vertex="1" parent="1">
          <mxGeometry x="360" y="650" width="120" height="80" as="geometry" />
        </mxCell>
        <mxCell id="TM3yOK5nRzFVSYAbz1Og-26" value="Start" style="ellipse;whiteSpace=wrap;html=1;" vertex="1" parent="1">
          <mxGeometry x="354" y="20" width="120" height="80" as="geometry" />
        </mxCell>
        <mxCell id="TM3yOK5nRzFVSYAbz1Og-30" value="End" style="ellipse;whiteSpace=wrap;html=1;" vertex="1" parent="1">
          <mxGeometry x="210" y="350" width="120" height="80" as="geometry" />
        </mxCell>
        <mxCell id="TM3yOK5nRzFVSYAbz1Og-32" value="End" style="ellipse;whiteSpace=wrap;html=1;" vertex="1" parent="1">
          <mxGeometry x="660" y="550" width="120" height="80" as="geometry" />
        </mxCell>
      </root>
    </mxGraphModel>
  </diagram>
</mxfile>
